# xmcd CD database file
#
# Track frame offsets:
#	150
#	21302
#	41102
#	63012
#	81472
#	100742
#	122307
#	147880
#	171387
#
# Disc length: 2596 seconds
#
# Revision: 0
# Processed by: cddbd v1.5PL3 Copyright (c) Steve Scherf et al.
# Submitted via: CDex 1.51
#
DISCID=740a2209
DTITLE=Chickenshack - Chickenshack IV
DYEAR=1988
DGENRE=Fusion
TTITLE0=BODY SLAM
TTITLE1=LOVE IS HERE TO STAY
TTITLE2=JUST GO ON
TTITLE3=IS IT LOVE
TTITLE4=2[2/1]NIGHT
TTITLE5=RISE
TTITLE6=ARE WE DREAMIN'
TTITLE7=IMPULSE LOVE
TTITLE8=FOREVER
EXTD=YEAR: 1988
EXTT0=
EXTT1=
EXTT2=
EXTT3=
EXTT4=
EXTT5=
EXTT6=
EXTT7=
EXTT8=
PLAYORDER=
